<svg width="800" height="132" viewBox="0 0 293 132" fill="none" xmlns="http://www.w3.org/2000/svg">
<path opacity="0.77" d="M177.797 27.5625V49.4375H57.162C57.093 49.4375 57.024 49.4583 56.9551 49.5C56.6792 49.5417 56.4033 49.5833 56.1274 49.625C55.2307 49.8333 54.4375 50.1458 53.7478 50.5625C52.9546 51.0625 52.3683 51.6458 51.989 52.3125C51.4717 53.3542 51.213 54.8333 51.213 56.75V60.375H33.1074V56.75C33.1074 47.0833 35.9181 39.5417 41.5394 34.125C46.1262 29.75 51.3682 27.5625 57.2654 27.5625H177.797ZM177.797 60.375V82.25H57.162C57.093 82.25 57.024 82.25 56.9551 82.25C56.6792 82.2917 56.4033 82.3542 56.1274 82.4375C55.2307 82.6458 54.4375 82.9583 53.7478 83.375C52.9546 83.8333 52.3683 84.4167 51.989 85.125C51.4717 86.1667 51.213 87.6458 51.213 89.5625V115H33.1074V89.5625C33.1074 79.8542 35.9181 72.3125 41.5394 66.9375C46.1262 62.5625 51.3682 60.375 57.2654 60.375H177.797Z" fill="url(#paint0_linear_111_435)"/>
<mask id="mask0_111_435" style="mask-type:alpha" maskUnits="userSpaceOnUse" x="-18" y="-19" width="318" height="158">
<path d="M0 132C23.8942 67.627 89.6256 -45.0699 161.398 19.1268" stroke="black" stroke-width="37"/>
<g style="mix-blend-mode:multiply">
<path d="M33.1074 132C57.0016 67.627 122.733 -45.0699 194.506 19.1268" stroke="black" stroke-width="8" stroke-dasharray="1 1"/>
</g>
<g style="mix-blend-mode:multiply">
<path d="M98.4941 132C122.388 67.627 188.12 -45.0699 259.892 19.1268" stroke="black" stroke-width="37" stroke-dasharray="1 1"/>
</g>
<path d="M131.602 132C155.496 67.627 221.227 -45.0699 293 19.1268" stroke="black" stroke-width="20"/>
</mask>
<g mask="url(#mask0_111_435)">
<path d="M83.5972 101.338V104.756H60.8335H60.8237C60.8107 104.756 60.7977 104.759 60.7847 104.766C60.7326 104.772 60.6805 104.779 60.6284 104.785C60.4591 104.818 60.3094 104.867 60.1792 104.932C60.0295 105.01 59.9188 105.101 59.8472 105.205C59.7495 105.368 59.7007 105.599 59.7007 105.898V106.465H56.2827V105.898C56.2827 104.388 56.8133 103.21 57.8745 102.363C58.7404 101.68 59.73 101.338 60.8433 101.338H83.5972ZM83.5972 106.465V109.883H60.8335H60.8237C60.8107 109.883 60.7977 109.883 60.7847 109.883C60.7326 109.889 60.6805 109.899 60.6284 109.912C60.4591 109.945 60.3094 109.993 60.1792 110.059C60.0295 110.13 59.9188 110.221 59.8472 110.332C59.7495 110.495 59.7007 110.726 59.7007 111.025V115H56.2827V111.025C56.2827 109.508 56.8133 108.33 57.8745 107.49C58.7404 106.807 59.73 106.465 60.8433 106.465H83.5972ZM113.363 111.582V115H92.8745C91.2078 115 89.7267 114.489 88.4312 113.467C86.8426 112.204 86.0483 110.439 86.0483 108.174V101.338H89.4663V108.174C89.4663 109.508 89.9351 110.465 90.8726 111.045C91.2046 111.247 91.5822 111.393 92.0054 111.484C92.1681 111.517 92.3341 111.543 92.5034 111.562C92.6336 111.576 92.7573 111.582 92.8745 111.582H113.363ZM138.011 115H122.64C120.973 115 119.492 114.489 118.197 113.467C116.654 112.236 115.86 110.534 115.814 108.359V107.979C115.86 105.798 116.654 104.098 118.197 102.881C119.492 101.852 120.973 101.338 122.64 101.338H138.011C139.678 101.338 141.159 101.852 142.455 102.881C143.998 104.098 144.792 105.798 144.837 107.979V108.359C144.792 110.534 143.998 112.236 142.455 113.467C141.159 114.489 139.678 115 138.011 115ZM120.638 105.303C119.701 105.876 119.232 106.833 119.232 108.174C119.232 109.508 119.701 110.465 120.638 111.045C120.97 111.247 121.348 111.393 121.771 111.484C121.934 111.517 122.1 111.543 122.269 111.562C122.399 111.576 122.523 111.582 122.64 111.582H137.992C138.115 111.582 138.242 111.576 138.373 111.562C138.542 111.543 138.708 111.517 138.871 111.484C139.3 111.393 139.681 111.247 140.013 111.045C140.951 110.465 141.419 109.508 141.419 108.174C141.419 106.833 140.951 105.876 140.013 105.303C139.681 105.094 139.304 104.945 138.88 104.854C138.718 104.821 138.552 104.795 138.382 104.775C138.252 104.762 138.128 104.756 138.011 104.756H122.66C122.536 104.756 122.409 104.762 122.279 104.775C122.11 104.795 121.944 104.821 121.781 104.854C121.351 104.945 120.97 105.094 120.638 105.303ZM150.697 101.338V111.582H171.185C171.302 111.582 171.426 111.576 171.556 111.562C171.725 111.543 171.888 111.517 172.044 111.484C172.474 111.393 172.855 111.247 173.187 111.045C174.125 110.465 174.593 109.508 174.593 108.174V101.338H178.011V108.174C178.011 110.439 177.217 112.204 175.628 113.467C174.333 114.489 172.852 115 171.185 115H147.279V101.338H150.697ZM160.941 108.174V101.338H164.349V108.174H160.941Z" fill="white"/>
<path d="M177.797 27.5625V49.4375H57.162C57.093 49.4375 57.024 49.4583 56.9551 49.5C56.6792 49.5417 56.4033 49.5833 56.1274 49.625C55.2307 49.8333 54.4375 50.1458 53.7478 50.5625C52.9546 51.0625 52.3683 51.6458 51.989 52.3125C51.4717 53.3542 51.213 54.8333 51.213 56.75V60.375H33.1074V56.75C33.1074 47.0833 35.9181 39.5417 41.5394 34.125C46.1262 29.75 51.3682 27.5625 57.2654 27.5625H177.797ZM177.797 60.375V82.25H57.162C57.093 82.25 57.024 82.25 56.9551 82.25C56.6792 82.2917 56.4033 82.3542 56.1274 82.4375C55.2307 82.6458 54.4375 82.9583 53.7478 83.375C52.9546 83.8333 52.3683 84.4167 51.989 85.125C51.4717 86.1667 51.213 87.6458 51.213 89.5625V115H33.1074V89.5625C33.1074 79.8542 35.9181 72.3125 41.5394 66.9375C46.1262 62.5625 51.3682 60.375 57.2654 60.375H177.797Z" fill="url(#paint1_linear_111_435)"/>
</g>
<path d="M83.5972 101.338V104.756H60.8335H60.8237C60.8107 104.756 60.7977 104.759 60.7847 104.766C60.7326 104.772 60.6805 104.779 60.6284 104.785C60.4591 104.818 60.3094 104.867 60.1792 104.932C60.0295 105.01 59.9188 105.101 59.8472 105.205C59.7495 105.368 59.7007 105.599 59.7007 105.898V106.465H56.2827V105.898C56.2827 104.388 56.8133 103.21 57.8745 102.363C58.7404 101.68 59.73 101.338 60.8433 101.338H83.5972ZM83.5972 106.465V109.883H60.8335H60.8237C60.8107 109.883 60.7977 109.883 60.7847 109.883C60.7326 109.889 60.6805 109.899 60.6284 109.912C60.4591 109.945 60.3094 109.993 60.1792 110.059C60.0295 110.13 59.9188 110.221 59.8472 110.332C59.7495 110.495 59.7007 110.726 59.7007 111.025V115H56.2827V111.025C56.2827 109.508 56.8133 108.33 57.8745 107.49C58.7404 106.807 59.73 106.465 60.8433 106.465H83.5972ZM113.363 111.582V115H92.8745C91.2078 115 89.7267 114.489 88.4312 113.467C86.8426 112.204 86.0483 110.439 86.0483 108.174V101.338H89.4663V108.174C89.4663 109.508 89.9351 110.465 90.8726 111.045C91.2046 111.247 91.5822 111.393 92.0054 111.484C92.1681 111.517 92.3341 111.543 92.5034 111.562C92.6336 111.576 92.7573 111.582 92.8745 111.582H113.363ZM138.011 115H122.64C120.973 115 119.492 114.489 118.197 113.467C116.654 112.236 115.86 110.534 115.814 108.359V107.979C115.86 105.798 116.654 104.098 118.197 102.881C119.492 101.852 120.973 101.338 122.64 101.338H138.011C139.678 101.338 141.159 101.852 142.455 102.881C143.998 104.098 144.792 105.798 144.837 107.979V108.359C144.792 110.534 143.998 112.236 142.455 113.467C141.159 114.489 139.678 115 138.011 115ZM120.638 105.303C119.701 105.876 119.232 106.833 119.232 108.174C119.232 109.508 119.701 110.465 120.638 111.045C120.97 111.247 121.348 111.393 121.771 111.484C121.934 111.517 122.1 111.543 122.269 111.562C122.399 111.576 122.523 111.582 122.64 111.582H137.992C138.115 111.582 138.242 111.576 138.373 111.562C138.542 111.543 138.708 111.517 138.871 111.484C139.3 111.393 139.681 111.247 140.013 111.045C140.951 110.465 141.419 109.508 141.419 108.174C141.419 106.833 140.951 105.876 140.013 105.303C139.681 105.094 139.304 104.945 138.88 104.854C138.718 104.821 138.552 104.795 138.382 104.775C138.252 104.762 138.128 104.756 138.011 104.756H122.66C122.536 104.756 122.409 104.762 122.279 104.775C122.11 104.795 121.944 104.821 121.781 104.854C121.351 104.945 120.97 105.094 120.638 105.303ZM150.697 101.338V111.582H171.185C171.302 111.582 171.426 111.576 171.556 111.562C171.725 111.543 171.888 111.517 172.044 111.484C172.474 111.393 172.855 111.247 173.187 111.045C174.125 110.465 174.593 109.508 174.593 108.174V101.338H178.011V108.174C178.011 110.439 177.217 112.204 175.628 113.467C174.333 114.489 172.852 115 171.185 115H147.279V101.338H150.697ZM160.941 108.174V101.338H164.349V108.174H160.941Z" fill="url(#paint2_linear_111_435)"/>
<defs>
<linearGradient id="paint0_linear_111_435" x1="112.151" y1="-19" x2="112.151" y2="168" gradientUnits="userSpaceOnUse">
<stop stop-color="white"/>
<stop offset="1" stop-color="#FF09C9"/>
</linearGradient>
<linearGradient id="paint1_linear_111_435" x1="112.151" y1="-19" x2="112.151" y2="168" gradientUnits="userSpaceOnUse">
<stop stop-color="white"/>
<stop offset="1" stop-color="#FF09C9"/>
</linearGradient>
<linearGradient id="paint2_linear_111_435" x1="70.3533" y1="109" x2="159.744" y2="108.657" gradientUnits="userSpaceOnUse">
<stop stop-color="white" stop-opacity="0.23"/>
<stop offset="0.865" stop-color="#999999"/>
</linearGradient>
</defs>
</svg>
