<svg width="292" height="132" viewBox="0 0 292 132" fill="none" xmlns="http://www.w3.org/2000/svg">
<path opacity="0.77" d="M177.19 27.5625V49.4375H56.9671C56.8983 49.4375 56.8296 49.4583 56.7609 49.5C56.4859 49.5417 56.211 49.5833 55.936 49.625C55.0424 49.8333 54.2519 50.1458 53.5645 50.5625C52.7741 51.0625 52.1898 51.6458 51.8117 52.3125C51.2962 53.3542 51.0384 54.8333 51.0384 56.75V60.375H32.9946V56.75C32.9946 47.0833 35.7957 39.5417 41.3979 34.125C45.969 29.75 51.1931 27.5625 57.0702 27.5625H177.19ZM177.19 60.375V82.25H56.9671C56.8983 82.25 56.8296 82.25 56.7609 82.25C56.4859 82.2917 56.211 82.3542 55.936 82.4375C55.0424 82.6458 54.2519 82.9583 53.5645 83.375C52.7741 83.8333 52.1898 84.4167 51.8117 85.125C51.2962 86.1667 51.0384 87.6458 51.0384 89.5625V115H32.9946V89.5625C32.9946 79.8542 35.7957 72.3125 41.3979 66.9375C45.969 62.5625 51.1931 60.375 57.0702 60.375H177.19Z" fill="url(#paint0_linear_111_435)"/>
<path d="M83.4053 101.338V104.756H60.6416H60.6318C60.6188 104.756 60.6058 104.759 60.5928 104.766C60.5407 104.772 60.4886 104.779 60.4365 104.785C60.2673 104.818 60.1175 104.867 59.9873 104.932C59.8376 105.01 59.7269 105.101 59.6553 105.205C59.5576 105.368 59.5088 105.599 59.5088 105.898V106.465H56.0908V105.898C56.0908 104.388 56.6214 103.21 57.6826 102.363C58.5485 101.68 59.5381 101.338 60.6514 101.338H83.4053ZM83.4053 106.465V109.883H60.6416H60.6318C60.6188 109.883 60.6058 109.883 60.5928 109.883C60.5407 109.889 60.4886 109.899 60.4365 109.912C60.2673 109.945 60.1175 109.993 59.9873 110.059C59.8376 110.13 59.7269 110.221 59.6553 110.332C59.5576 110.495 59.5088 110.726 59.5088 111.025V115H56.0908V111.025C56.0908 109.508 56.6214 108.33 57.6826 107.49C58.5485 106.807 59.5381 106.465 60.6514 106.465H83.4053ZM113.171 111.582V115H92.6826C91.016 115 89.5348 114.489 88.2393 113.467C86.6507 112.204 85.8564 110.439 85.8564 108.174V101.338H89.2744V108.174C89.2744 109.508 89.7432 110.465 90.6807 111.045C91.0127 111.247 91.3903 111.393 91.8135 111.484C91.9762 111.517 92.1423 111.543 92.3115 111.562C92.4417 111.576 92.5654 111.582 92.6826 111.582H113.171ZM137.819 115H122.448C120.782 115 119.3 114.489 118.005 113.467C116.462 112.236 115.668 110.534 115.622 108.359V107.979C115.668 105.798 116.462 104.098 118.005 102.881C119.3 101.852 120.782 101.338 122.448 101.338H137.819C139.486 101.338 140.967 101.852 142.263 102.881C143.806 104.098 144.6 105.798 144.646 107.979V108.359C144.6 110.534 143.806 112.236 142.263 113.467C140.967 114.489 139.486 115 137.819 115ZM120.446 105.303C119.509 105.876 119.04 106.833 119.04 108.174C119.04 109.508 119.509 110.465 120.446 111.045C120.778 111.247 121.156 111.393 121.579 111.484C121.742 111.517 121.908 111.543 122.077 111.562C122.207 111.576 122.331 111.582 122.448 111.582H137.8C137.924 111.582 138.05 111.576 138.181 111.562C138.35 111.543 138.516 111.517 138.679 111.484C139.108 111.393 139.489 111.247 139.821 111.045C140.759 110.465 141.228 109.508 141.228 108.174C141.228 106.833 140.759 105.876 139.821 105.303C139.489 105.094 139.112 104.945 138.688 104.854C138.526 104.821 138.36 104.795 138.19 104.775C138.06 104.762 137.937 104.756 137.819 104.756H122.468C122.344 104.756 122.217 104.762 122.087 104.775C121.918 104.795 121.752 104.821 121.589 104.854C121.159 104.945 120.778 105.094 120.446 105.303ZM150.505 101.338V111.582H170.993C171.11 111.582 171.234 111.576 171.364 111.562C171.534 111.543 171.696 111.517 171.853 111.484C172.282 111.393 172.663 111.247 172.995 111.045C173.933 110.465 174.401 109.508 174.401 108.174V101.338H177.819V108.174C177.819 110.439 177.025 112.204 175.437 113.467C174.141 114.489 172.66 115 170.993 115H147.087V101.338H150.505ZM160.749 108.174V101.338H164.157V108.174H160.749Z" fill="white"/>
<mask id="mask0_111_435" style="mask-type:alpha" maskUnits="userSpaceOnUse" x="-18" y="-19" width="317" height="158">
<path d="M0 132C23.8126 67.627 89.3198 -45.0699 160.847 19.1268" stroke="black" stroke-width="37"/>
<g style="mix-blend-mode:multiply">
<path d="M32.9946 132C56.8072 67.627 122.314 -45.0699 193.842 19.1268" stroke="black" stroke-width="8" stroke-dasharray="1 1"/>
</g>
<g style="mix-blend-mode:multiply">
<path d="M98.1582 132C121.971 67.627 187.478 -45.0699 259.006 19.1268" stroke="black" stroke-width="37" stroke-dasharray="1 1"/>
</g>
<path d="M131.152 132C154.965 67.627 220.472 -45.0699 292 19.1268" stroke="black" stroke-width="20"/>
</mask>
<g mask="url(#mask0_111_435)">
<path d="M177.19 27.5625V49.4375H56.9671C56.8983 49.4375 56.8296 49.4583 56.7609 49.5C56.4859 49.5417 56.211 49.5833 55.936 49.625C55.0424 49.8333 54.2519 50.1458 53.5645 50.5625C52.7741 51.0625 52.1898 51.6458 51.8117 52.3125C51.2962 53.3542 51.0384 54.8333 51.0384 56.75V60.375H32.9946V56.75C32.9946 47.0833 35.7957 39.5417 41.3979 34.125C45.969 29.75 51.1931 27.5625 57.0702 27.5625H177.19ZM177.19 60.375V82.25H56.9671C56.8983 82.25 56.8296 82.25 56.7609 82.25C56.4859 82.2917 56.211 82.3542 55.936 82.4375C55.0424 82.6458 54.2519 82.9583 53.5645 83.375C52.7741 83.8333 52.1898 84.4167 51.8117 85.125C51.2962 86.1667 51.0384 87.6458 51.0384 89.5625V115H32.9946V89.5625C32.9946 79.8542 35.7957 72.3125 41.3979 66.9375C45.969 62.5625 51.1931 60.375 57.0702 60.375H177.19Z" fill="url(#paint1_linear_111_435)"/>
</g>
<path d="M83.4053 101.338V104.756H60.6318C60.6188 104.756 60.6058 104.759 60.5928 104.766C60.5407 104.772 60.4886 104.779 60.4365 104.785C60.2673 104.818 60.1175 104.867 59.9873 104.932C59.8376 105.01 59.7269 105.101 59.6553 105.205C59.5576 105.368 59.5088 105.599 59.5088 105.898V106.465H56.0908V105.898C56.0908 104.388 56.6214 103.21 57.6826 102.363C58.5485 101.68 59.5381 101.338 60.6514 101.338H83.4053ZM83.4053 106.465V109.883H60.6318C60.6188 109.883 60.6058 109.883 60.5928 109.883C60.5407 109.889 60.4886 109.899 60.4365 109.912C60.2673 109.945 60.1175 109.993 59.9873 110.059C59.8376 110.13 59.7269 110.221 59.6553 110.332C59.5576 110.495 59.5088 110.726 59.5088 111.025V115H56.0908V111.025C56.0908 109.508 56.6214 108.33 57.6826 107.49C58.5485 106.807 59.5381 106.465 60.6514 106.465H83.4053Z" fill="url(#paint2_linear_111_435)"/>
<path d="M113.171 111.582V115H92.6826C91.016 115 89.5348 114.489 88.2393 113.467C86.6507 112.204 85.8564 110.439 85.8564 108.174V101.338H89.2744V108.174C89.2744 109.508 89.7432 110.465 90.6807 111.045C91.0127 111.247 91.3903 111.393 91.8135 111.484C91.9762 111.517 92.1423 111.543 92.3115 111.562C92.4417 111.576 92.5654 111.582 92.6826 111.582H113.171Z" fill="url(#paint3_linear_111_435)"/>
<path d="M137.819 115H122.448C120.782 115 119.3 114.489 118.005 113.467C116.462 112.236 115.668 110.534 115.622 108.359V107.979C115.668 105.798 116.462 104.098 118.005 102.881C119.3 101.852 120.782 101.338 122.448 101.338H137.819C139.486 101.338 140.967 101.852 142.263 102.881C143.806 104.098 144.6 105.798 144.646 107.979V108.359C144.6 110.534 143.806 112.236 142.263 113.467C140.967 114.489 139.486 115 137.819 115ZM120.446 105.303C119.509 105.876 119.04 106.833 119.04 108.174C119.04 109.508 119.509 110.465 120.446 111.045C120.778 111.247 121.156 111.393 121.579 111.484C121.742 111.517 121.908 111.543 122.077 111.562C122.207 111.576 122.331 111.582 122.448 111.582H137.8C137.924 111.582 138.05 111.576 138.181 111.562C138.35 111.543 138.516 111.517 138.679 111.484C139.108 111.393 139.489 111.247 139.821 111.045C140.759 110.465 141.228 109.508 141.228 108.174C141.228 106.833 140.759 105.876 139.821 105.303C139.489 105.094 139.112 104.945 138.688 104.854C138.526 104.821 138.36 104.795 138.19 104.775C138.06 104.762 137.937 104.756 137.819 104.756H122.468C122.344 104.756 122.217 104.762 122.087 104.775C121.918 104.795 121.752 104.821 121.589 104.854C121.159 104.945 120.778 105.094 120.446 105.303Z" fill="url(#paint4_linear_111_435)"/>
<path d="M150.505 101.338V111.582H170.993C171.11 111.582 171.234 111.576 171.364 111.562C171.534 111.543 171.696 111.517 171.853 111.484C172.282 111.393 172.663 111.247 172.995 111.045C173.933 110.465 174.401 109.508 174.401 108.174V101.338H177.819V108.174C177.819 110.439 177.025 112.204 175.437 113.467C174.141 114.489 172.66 115 170.993 115H147.087V101.338H150.505ZM160.749 108.174V101.338H164.157V108.174H160.749Z" fill="url(#paint5_linear_111_435)"/>
<defs>
<linearGradient id="paint0_linear_111_435" x1="111.769" y1="-19" x2="111.769" y2="168" gradientUnits="userSpaceOnUse">
<stop stop-color="white"/>
<stop offset="1" stop-color="#FF09C9"/>
</linearGradient>
<linearGradient id="paint1_linear_111_435" x1="111.769" y1="-19" x2="111.769" y2="168" gradientUnits="userSpaceOnUse">
<stop stop-color="white"/>
<stop offset="1" stop-color="#FF09C9"/>
</linearGradient>
<linearGradient id="paint2_linear_111_435" x1="70.1134" y1="109" x2="159.199" y2="108.66" gradientUnits="userSpaceOnUse">
<stop stop-color="white" stop-opacity="0.23"/>
<stop offset="0.865" stop-color="#999999"/>
</linearGradient>
<linearGradient id="paint3_linear_111_435" x1="70.1134" y1="109" x2="159.199" y2="108.66" gradientUnits="userSpaceOnUse">
<stop stop-color="white" stop-opacity="0.23"/>
<stop offset="0.865" stop-color="#999999"/>
</linearGradient>
<linearGradient id="paint4_linear_111_435" x1="70.1134" y1="109" x2="159.199" y2="108.66" gradientUnits="userSpaceOnUse">
<stop stop-color="white" stop-opacity="0.23"/>
<stop offset="0.865" stop-color="#999999"/>
</linearGradient>
<linearGradient id="paint5_linear_111_435" x1="70.1134" y1="109" x2="159.199" y2="108.66" gradientUnits="userSpaceOnUse">
<stop stop-color="white" stop-opacity="0.23"/>
<stop offset="0.865" stop-color="#999999"/>
</linearGradient>
</defs>
</svg>
