<svg width="37" height="8" viewBox="0 0 37 8" fill="none" xmlns="http://www.w3.org/2000/svg">
<path d="M0.0121102 7.00226C-0.109648 7.54341 0.71673 7.8929 1.14514 8H1.66938L1.551 7.79707C1.0324 7.66742 0.336798 7.32695 0.891475 7.00226C1.58482 6.5964 3.46193 5.86923 3.259 5.26044C3.05607 4.65165 13.5577 6.03834 15.5532 6.03834C17.5487 6.03834 26.6975 6.08897 27.357 5.59865C28.0334 5.48028 33.1574 2.30103 32.4979 1.92899C31.8384 1.55695 34.4878 0.919977 35.7786 0.948162L33.9861 5.29426C33.9861 5.29426 34.375 5.78467 33.8846 6.24127C33.3942 6.69786 35.5216 5.20632 35.508 5.59865C35.4945 5.99099 34.375 6.69786 34.375 6.69786L35.1191 6.5964C35.6941 6.16235 36.6817 5.29426 36.0323 5.29426C35.3829 5.29426 34.7978 5.68321 34.5949 5.48028C34.3919 5.27735 34.5949 5.29426 34.5949 5.29426L36.6749 0.0857068C35.8068 -0.151046 33.6073 -0.0394336 31.7538 2.30103C29.8936 4.33034 27.9263 5.33935 27.2048 5.29426C25.074 5.32244 20.1597 5.3619 17.5487 5.29426C14.2849 5.2097 13.9805 4.7362 10.1586 4.75311C6.33678 4.77002 3.63104 4.92222 3.42811 4.90531C3.22518 4.8884 2.75167 5.14206 2.05833 5.6663C1.36498 6.19054 0.164308 6.32582 0.0121102 7.00226Z" fill="url(#paint0_linear_111_432)"/>
<defs>
<linearGradient id="paint0_linear_111_432" x1="18.3374" y1="0" x2="18.3374" y2="8" gradientUnits="userSpaceOnUse">
<stop offset="0.173651" stop-color="#FF05C8"/>
<stop offset="1" stop-color="#FF05C8" stop-opacity="0"/>
</linearGradient>
</defs>
</svg>
